<?xml version="1.0" standalone="no"?>
<!DOCTYPE svg PUBLIC "-//W3C//DTD SVG 20010904//EN"
 "http://www.w3.org/TR/2001/REC-SVG-20010904/DTD/svg10.dtd">
<svg version="1.0" xmlns="http://www.w3.org/2000/svg"
 width="357.000000pt" height="357.000000pt" viewBox="0 0 357.000000 357.000000"
 preserveAspectRatio="xMidYMid meet">
<metadata>
Created by potrace 1.11, written by Peter Selinger 2001-2013
</metadata>
<g transform="translate(0.000000,357.000000) scale(0.100000,-0.100000)"
fill="#000000" stroke="none">
<path d="M1740 3407 c-14 -7 -31 -12 -37 -10 -6 2 -14 -1 -18 -6 -3 -6 -13
-11 -22 -11 -24 0 -167 -70 -176 -86 -4 -8 -16 -14 -25 -14 -10 0 -50 -33 -91
-74 -60 -60 -78 -73 -101 -71 -28 2 -45 -16 -52 -55 -2 -8 -38 -50 -80 -93
-43 -43 -78 -82 -78 -86 0 -5 -7 -14 -15 -21 -9 -7 -13 -15 -11 -17 3 -3 -11
-19 -30 -36 -19 -18 -34 -37 -34 -44 0 -7 -7 -16 -16 -21 -9 -5 -15 -12 -15
-15 1 -4 -17 -43 -39 -87 -22 -44 -37 -80 -34 -80 4 0 1 -7 -6 -15 -6 -8 -9
-19 -5 -25 3 -5 1 -10 -4 -10 -6 0 -11 -13 -11 -29 0 -16 -5 -42 -12 -58 -13
-32 -17 -48 -22 -81 -1 -12 -6 -25 -9 -29 -4 -3 -7 -16 -7 -28 0 -11 -5 -26
-11 -32 -6 -6 -12 -29 -12 -52 -1 -22 -5 -41 -8 -41 -4 0 -10 -15 -14 -32 -8
-36 -11 -45 -15 -53 -1 -3 -3 -9 -4 -14 0 -5 -4 -13 -8 -17 -5 -4 -8 -29 -8
-56 0 -52 -10 -60 -34 -27 -15 23 -62 34 -72 18 -3 -5 -9 -7 -13 -5 -10 6 -61
-74 -61 -95 0 -10 -5 -21 -10 -24 -6 -4 -8 -11 -4 -16 3 -5 1 -15 -4 -22 -6
-7 -9 -29 -8 -49 1 -21 -2 -38 -6 -38 -10 0 -11 -164 -1 -173 4 -4 6 -26 6
-50 0 -23 2 -46 5 -52 4 -5 7 -17 7 -25 1 -20 25 -62 44 -77 9 -7 32 -13 51
-13 45 0 61 -25 62 -91 0 -27 4 -51 9 -54 4 -3 6 -12 2 -20 -3 -8 0 -15 7 -15
7 0 10 -8 7 -20 -3 -11 -1 -20 4 -20 5 0 9 -6 9 -14 0 -8 5 -27 12 -43 6 -15
11 -31 10 -35 -1 -5 2 -8 7 -8 7 0 22 -39 25 -70 1 -3 11 -21 24 -41 12 -20
22 -39 22 -43 0 -3 10 -17 22 -32 13 -14 23 -30 23 -34 0 -5 8 -19 17 -30 10
-11 18 -23 18 -26 0 -9 260 -266 260 -257 1 4 10 -3 20 -16 11 -13 20 -20 20
-16 0 4 15 -5 33 -19 17 -15 37 -30 43 -35 16 -13 107 -54 124 -57 8 -1 28 -7
43 -13 35 -14 224 -14 298 -1 104 18 144 27 144 31 0 1 9 3 20 4 11 2 34 8 50
15 17 7 34 12 39 11 4 -1 14 3 22 10 7 6 18 8 23 5 5 -4 12 -2 16 3 3 6 27 20
53 33 26 12 59 31 75 41 15 10 27 15 27 10 0 -4 5 0 11 10 5 9 17 17 24 17 8
0 15 3 15 8 0 4 16 16 35 26 19 10 37 27 40 37 4 11 10 19 15 19 12 0 124 118
132 140 11 30 42 56 61 52 9 -2 17 -8 17 -14 0 -5 15 -8 34 -5 34 5 104 69
136 126 8 14 18 27 22 29 4 2 4 10 1 19 -4 11 -2 14 5 9 7 -4 12 -3 12 3 0 5
16 38 36 71 20 34 37 67 38 73 2 7 8 25 14 40 7 16 12 34 12 41 0 7 3 16 7 20
4 4 7 32 8 64 0 63 -16 85 -65 88 -36 2 -37 3 -17 15 9 5 17 19 17 29 0 11 4
20 10 20 5 0 7 7 4 15 -4 8 -2 15 4 15 5 0 9 17 7 38 -1 24 4 47 18 66 11 16
21 45 22 65 1 34 26 123 46 166 5 11 7 30 5 42 -3 13 -1 25 3 28 7 4 15 32 26
90 1 6 3 13 5 18 1 4 3 15 4 25 1 9 4 22 7 27 4 6 7 84 6 175 0 122 4 172 14
190 7 14 12 29 11 34 -2 4 2 14 8 21 6 7 9 29 7 49 -4 32 -2 36 19 37 45 3 49
4 52 23 5 24 -18 96 -30 96 -5 0 -6 5 -3 11 4 5 -4 20 -17 32 -13 12 -22 30
-20 40 2 9 -1 17 -7 17 -5 0 -8 9 -6 20 2 11 0 20 -6 20 -5 0 -15 12 -21 28
-14 32 -117 142 -134 142 -7 0 -14 5 -16 11 -2 5 -11 11 -19 12 -9 2 -40 24
-69 50 -29 26 -56 45 -60 42 -4 -3 -10 2 -14 10 -3 8 -14 15 -25 15 -11 0 -23
5 -26 10 -4 6 -11 8 -16 5 -5 -4 -9 -2 -9 2 0 9 -59 37 -72 34 -5 0 -8 4 -8
11 0 6 -3 9 -6 5 -4 -3 -20 1 -36 9 -17 9 -37 17 -46 19 -39 7 -46 11 -72 38
-15 15 -32 27 -38 27 -6 0 -15 6 -19 14 -9 17 -141 86 -163 86 -9 0 -21 5 -26
10 -16 16 -69 23 -209 27 -95 3 -137 0 -155 -10z"/>
</g>
</svg>
